# xmcd
#
# Track frame offsets: 
#        150
#        21000
#        43931
#        63251
#        81848
#        101636
#        119249
#        141884
#        162427
#        181300
#
# Disc length: 2641 seconds
#
# Revision: 0
# Processed by: cddbd v1.5.2PL0 Copyright (c) Steve Scherf et al.
# Submitted via: ExactAudioCopy v1.0b3
#
DISCID=8c0a4f0a
DTITLE=Phuong Hong Que - Dong Le
DYEAR=1985
DGENRE=
TTITLE0=Buon
TTITLE1=Rong reu
TTITLE2=Dem buon mat biec
TTITLE3=Dong le
TTITLE4=Anh cu hen
TTITLE5=Mai lo minh xa nhau
TTITLE6=Roi mot ngay ta quen nhau
TTITLE7=Mua le
TTITLE8=Cho ruc ro em
TTITLE9=Mong manh
EXTD=
EXTT0=
EXTT1=
EXTT2=
EXTT3=
EXTT4=
EXTT5=
EXTT6=
EXTT7=
EXTT8=
EXTT9=
PLAYORDER=
